<svg width="758" height="761" viewBox="0 0 758 761" fill="none" xmlns="http://www.w3.org/2000/svg">
<path d="M257.007 422.888C270.606 423.253 270.576 424.455 284.205 424.699C297.833 424.958 297.833 425.323 311.477 425.521C325.121 425.627 325.137 424.455 338.781 424.516C352.425 424.592 352.44 424.075 366.084 424.105C379.743 424.105 379.743 425.962 393.402 425.917C407.061 425.871 407.046 425.277 420.705 425.201C434.364 425.095 434.364 424.912 448.023 424.76C461.698 424.608 461.698 425.338 475.372 425.125C489.031 424.882 489.016 424.121 502.66 423.801C512.711 423.527 514.182 426.921 514.318 431.35C514.455 435.779 513.181 438.656 503.039 438.93C489.35 439.249 489.38 440.756 475.675 441C461.986 441.197 461.956 439.508 448.266 439.66C434.577 439.812 434.577 439.493 420.902 439.599C407.213 439.675 407.228 441.547 393.538 441.593C379.849 441.639 379.849 440.223 366.159 440.223C357.043 440.141 347.922 440.065 338.796 439.995C325.106 439.934 325.091 440.086 311.402 439.98C297.697 439.797 297.682 441.121 283.947 440.863C270.227 440.604 270.212 440.969 256.477 440.589C246.32 440.269 247.108 435.779 247.26 431.35C247.411 426.921 246.956 422.553 257.007 422.857V422.888ZM576.793 420.194C585.131 420.072 585.146 421.259 593.484 421.198C601.822 421.122 601.822 421.564 610.145 421.518C618.467 421.503 618.467 420.3 626.805 420.285C635.128 420.316 635.143 419.798 643.466 419.844C651.804 419.889 651.789 421.731 660.112 421.792C668.435 421.853 668.435 421.274 676.758 421.366C685.08 421.457 685.096 421.259 693.418 421.366C701.756 421.472 701.741 422.218 710.079 422.355C718.417 422.492 718.432 421.716 726.755 421.883C732.91 422.005 733.668 425.46 733.577 429.889C733.486 434.318 732.607 437.134 726.467 437.012C718.175 436.86 718.144 438.382 709.852 438.245C701.544 438.123 701.574 436.403 693.267 436.297C684.959 436.19 684.959 435.886 676.667 435.794C668.359 435.718 668.344 437.56 660.036 437.499C651.728 437.423 651.744 436.038 643.436 435.992C637.908 435.931 632.374 435.865 626.836 435.794C618.528 435.794 618.528 435.992 610.22 436.007C601.913 436.053 601.913 437.301 593.62 437.392C585.328 437.468 585.328 437.834 577.035 437.94C570.91 438.032 571.214 433.511 571.138 429.067C571.062 424.638 570.607 420.285 576.777 420.209L576.793 420.194ZM178.706 439.127C170.58 439.006 170.595 437.803 162.47 437.727C154.329 437.636 154.344 437.225 146.203 437.179C138.062 437.134 138.062 438.351 129.921 438.336C121.78 438.336 121.78 438.854 113.655 438.869C105.514 438.899 105.498 437.073 97.3575 437.118C89.2166 437.21 89.2318 437.773 81.0908 437.879C72.9499 437.986 72.9499 438.199 64.809 438.321C56.6681 438.473 56.6529 437.727 48.4968 437.91C40.3559 438.093 40.3711 438.869 32.2302 439.082C26.2268 439.249 25.3324 435.855 25.1808 431.411C25.0292 426.982 25.772 424.121 31.8208 423.938C39.9921 423.725 39.9618 422.203 48.133 422.02C56.3042 421.838 56.3497 423.557 64.5058 423.405C72.677 423.268 72.677 423.573 80.8483 423.466C89.0195 423.36 89.0044 421.518 97.1756 421.427C105.347 421.366 105.362 422.751 113.533 422.72C121.704 422.705 121.704 422.812 129.876 422.827C138.062 422.827 138.062 422.629 146.233 422.675C154.42 422.72 154.435 421.427 162.621 421.518C170.808 421.594 170.823 421.244 179.009 421.366C185.058 421.457 184.603 425.977 184.528 430.406C184.452 434.835 184.725 439.204 178.721 439.097L178.706 439.127Z" fill="black"/>
<path d="M725.74 661.248C725.618 646.606 726.983 646.591 726.861 631.965C726.74 617.323 727.665 617.323 727.544 602.682C727.422 588.04 725.118 588.055 724.997 573.414C724.875 558.772 726.164 558.757 726.043 544.1C725.921 529.458 724.512 529.458 724.39 514.817C724.269 500.175 725.997 500.16 725.876 485.518C725.755 470.876 723.935 470.892 723.814 456.25C723.743 446.489 723.678 436.728 723.617 426.967C723.496 412.325 725.3 412.31 725.179 397.668C725.148 394 725.012 391.261 724.815 388.978C724.618 386.695 724.299 385.036 724.026 383.285C723.738 381.55 723.511 379.83 723.117 377.684C722.95 376.604 722.783 375.432 722.617 374.092C722.48 372.753 722.313 371.246 722.056 369.526C721.267 362.662 720.737 359.238 720.434 355.768C719.888 352.343 719.554 348.842 717.583 342.161C715.567 335.51 714.157 332.298 712.672 329.163C711.944 327.58 711.247 325.997 710.261 324.064C709.276 322.131 708.321 319.727 706.714 316.652C705.956 315.1 705.289 313.73 704.713 312.527C704.091 311.325 703.545 310.275 703.045 309.316C702.029 307.414 701.347 305.8 700.483 304.309C699.634 302.787 698.785 301.28 697.739 299.377C696.647 297.505 695.162 295.359 693.221 292.483C691.579 290.276 689.972 288.044 688.4 285.786C687.097 284.051 686.096 282.62 685.08 281.189C684.11 279.728 683.003 278.389 681.609 276.7L679.244 273.914C678.184 272.792 677.108 271.686 676.015 270.596C673.604 268.07 671.618 266.365 670.042 264.843C668.48 263.321 667.161 262.164 665.842 261.023C663.235 258.694 660.582 256.411 654.912 252.317C649.212 248.269 646.059 246.701 643.027 244.981C639.873 243.459 636.841 241.77 630.58 238.741C624.289 235.773 621.136 234.312 617.922 232.927C616.33 232.212 614.738 231.481 612.676 230.766C610.614 230.05 608.189 229.046 604.808 228.163C603.125 227.691 601.655 227.295 600.336 226.93C599.017 226.595 597.835 226.382 596.773 226.154C594.636 225.728 592.938 225.347 591.21 225.104C587.753 224.632 584.327 224.054 577.414 223.247C573.958 222.821 571.35 222.745 569.182 222.592L568.394 222.547C568.151 222.547 567.818 222.516 567.894 222.532C567.408 222.532 566.939 222.547 566.469 222.562L563.679 222.653C560.026 222.775 556.387 222.897 549.095 222.897C534.511 222.897 534.496 223.825 519.927 223.825C505.359 223.825 505.343 223.567 490.76 223.567C476.176 223.567 476.191 222.319 461.592 222.319H432.409C417.825 222.319 417.825 221.634 403.241 221.634C388.657 221.634 388.642 223.597 374.058 223.612C359.474 223.612 359.474 223.217 344.89 223.217C330.306 223.217 330.291 224.145 315.707 224.145C301.123 224.145 301.123 223.856 286.539 223.856C271.955 223.856 271.955 222.273 257.371 222.273C242.787 222.273 242.787 223.43 228.203 223.43C213.62 223.43 213.589 223.871 199.051 223.901C195.594 223.993 193.002 224.038 190.834 224.054C188.681 224.16 186.953 224.236 185.225 224.328C181.768 224.434 178.312 224.769 171.46 225.789C168.064 226.443 165.502 226.885 163.394 227.356C161.302 227.889 159.62 228.315 157.952 228.741C157.118 228.954 156.269 229.168 155.39 229.396L152.555 230.279C151.524 230.598 150.387 230.933 149.099 231.329C148.447 231.527 147.765 231.724 147.037 231.953C146.324 232.212 145.551 232.485 144.748 232.775C138.199 234.997 134.894 236.047 131.468 236.899C129.77 237.341 128.117 237.934 126.055 238.695C125.025 239.091 123.918 239.532 122.66 240.065C121.416 240.643 120.067 241.359 118.521 242.196C116.99 243.033 115.625 243.748 114.443 244.433C113.291 245.164 112.26 245.803 111.335 246.381C109.501 247.569 107.985 248.466 106.59 249.517C103.77 251.602 100.859 253.535 95.3412 257.812C93.9314 258.831 92.764 259.836 91.7332 260.734L88.974 263.139C87.3064 264.554 86.1088 265.833 84.8808 267.081C83.6529 268.313 82.4249 269.561 80.8938 271.114C79.4232 272.712 77.604 274.599 75.1784 277.095C72.8741 279.698 71.1307 281.661 69.6905 283.29C68.3413 284.995 67.2498 286.349 66.1734 287.719C65.6276 288.404 65.0819 289.073 64.5058 289.804C63.96 290.55 63.384 291.341 62.7472 292.224C62.1105 293.107 61.4132 294.081 60.6097 295.177C60.2155 295.725 59.791 296.318 59.3362 296.942C58.9118 297.581 58.4721 298.266 58.0022 298.997C54.1212 304.78 52.5446 307.901 50.786 310.899C49.937 312.421 49.1942 314.004 48.1936 315.922C47.6934 316.896 47.1476 317.961 46.5412 319.163C45.9803 320.396 45.3587 321.796 44.631 323.379C43.1302 326.53 42.2358 328.98 41.4929 331.02C40.7652 333.074 40.0982 334.673 39.6586 336.362C39.1583 338.021 38.658 339.695 38.0364 341.765C37.3391 343.82 36.7933 346.377 35.8231 349.71C35.3228 351.369 35.0044 352.86 34.7164 354.185C34.4132 355.509 34.1403 356.665 33.8978 357.731C33.3672 359.831 33.0791 361.551 32.7759 363.256C32.4727 364.96 32.1544 366.68 31.7754 368.811C31.5176 370.972 31.2144 373.56 30.8051 376.999C30.5322 380.47 30.4261 383.072 30.2897 385.233C30.1381 387.395 30.2594 389.145 30.229 390.88C30.2594 392.615 30.1836 394.35 30.2745 396.527C30.3806 398.703 30.5019 401.306 30.6687 404.776C30.79 406.481 30.9112 407.942 31.0325 409.068C31.0932 409.525 31.1386 409.951 31.1993 410.362V410.468L30.7445 410.59L29.7288 410.864C29.1072 411.047 28.4856 411.244 27.8641 411.427C27.3032 411.594 26.7574 411.792 26.2268 412.005C25.7872 412.142 25.3475 412.325 24.9382 412.523C24.165 412.873 23.6041 413.208 23.3161 413.527C18.1314 419.144 30.3503 405.948 29.1224 407.318L29.3952 407.592L29.7439 407.987C29.9713 408.261 30.1987 408.535 30.3958 408.84C30.8051 409.433 31.1538 410.057 31.4267 410.681C31.6238 411.168 31.7299 411.503 31.8512 411.914C32.1392 412.858 32.1544 413.116 32.2453 413.588L32.3666 414.243L32.4272 414.76C32.4576 415.095 32.503 415.415 32.5334 415.734C32.6395 416.921 32.685 417.956 32.7153 418.961C32.8214 422.949 32.8062 426.693 33.0488 434.12C33.4278 448.929 33.3823 448.899 33.5188 463.632C33.5794 478.334 35.1106 478.319 35.0802 493.006C35.0196 507.694 34.7012 507.694 34.5951 522.366C34.4738 537.022 33.1246 537.007 32.973 551.664C32.7911 566.321 32.973 566.321 32.7759 580.963L32.2605 610.261C32.0179 624.918 32.6092 624.933 32.3514 639.59C32.215 646.911 31.9421 650.579 31.6692 654.232L31.2751 659.62C31.2296 660.015 30.9567 660.655 31.5328 661.126C31.9421 661.431 32.3969 661.34 32.4727 661.416C36.5659 661.781 39.0825 662.009 41.8416 662.253C45.0707 662.542 48.5878 662.831 54.5154 663.151C69.0841 663.927 69.1144 663.592 83.6832 664.368C98.252 665.145 98.2974 664.216 112.866 664.992C127.435 665.769 127.48 665.114 142.049 665.89C145.384 666.058 147.946 666.179 150.069 666.286C151.13 666.332 152.07 666.362 152.949 666.408L154.208 666.453C154.405 666.453 154.602 666.453 154.799 666.469H154.829C159.013 666.332 162.712 666.21 170.611 666.119C185.21 665.936 185.225 667.214 199.809 667.017C214.408 666.834 214.393 666.575 228.992 666.377L258.19 666.164C272.789 665.982 272.789 666.621 287.388 666.438C301.987 666.256 301.987 665.875 316.571 665.692C326.304 665.601 336.037 665.515 345.769 665.434C360.368 665.251 360.353 664.262 374.952 664.079C389.551 663.896 389.567 665.464 404.166 665.281C418.765 665.099 418.75 664.231 433.349 664.049C447.948 663.866 447.963 664.779 462.562 664.597L491.745 664.17C506.344 663.988 506.314 661.598 520.913 661.4C535.512 661.218 535.542 663.135 550.141 662.953C553.795 662.907 556.524 662.816 558.813 662.694C561.147 662.542 563.027 662.435 564.892 662.314C568.561 662.1 572.199 661.903 579.506 661.933C594.105 662.024 594.105 661.75 608.704 661.826C618.427 661.918 628.155 662.014 637.887 662.116C652.486 662.177 652.486 663.12 667.085 663.166C681.7 663.196 681.7 662.694 696.299 662.694C710.883 662.679 710.913 662.877 725.436 662.755C730.955 662.694 733.38 663.516 734.214 664.962L734.366 665.236C734.396 665.327 734.381 665.434 734.396 665.54L734.714 667.595L734.896 668.675C734.866 668.889 734.805 669.01 734.805 669.178C734.76 669.482 734.805 669.726 734.851 669.924C734.923 670.21 735.069 670.473 735.275 670.685C735.215 670.624 735.139 670.532 735.093 670.471L735.063 670.426L735.124 670.487L735.381 670.837C735.715 671.324 736.124 671.75 736.579 672.1C737.019 672.45 737.519 672.724 737.625 673.302C737.67 673.592 737.61 673.972 737.261 674.429C737.079 674.657 736.837 674.901 736.503 675.114C736.352 675.22 736.124 675.327 735.973 675.403L735.927 675.585C735.851 675.814 735.73 676.057 735.578 676.286C735.503 676.392 735.396 676.514 735.305 676.62C735.245 676.727 735.169 676.833 735.093 676.925C733.805 678.538 731.288 679.527 725.633 679.603C710.959 679.725 710.989 680.075 696.375 680.106C681.776 680.106 681.776 680.532 667.176 680.501C652.577 680.456 652.577 680.882 637.993 680.821C623.394 680.76 623.41 679.543 608.81 679.467C594.211 679.39 594.227 679.116 579.627 679.04C572.335 678.995 568.682 679.04 565.044 679.056C561.435 679.132 557.827 679.193 550.611 679.33C536.027 679.512 536.042 680.182 521.459 680.364C506.875 680.547 506.875 679.969 492.291 680.151L463.123 680.486C448.539 680.669 448.554 682.1 433.97 682.282L404.787 682.495C390.203 682.678 390.173 680.715 375.574 680.897C360.99 681.08 361.005 682.571 346.421 682.754C331.837 682.937 331.822 682.419 317.238 682.617C302.654 682.8 302.669 683.576 288.085 683.774C273.502 683.956 273.486 682.708 258.887 682.891C244.303 683.074 244.303 683.728 229.719 683.911C215.136 684.093 215.12 683.241 200.521 683.424C185.937 683.606 185.937 684.002 171.353 684.185C162.955 684.291 159.453 684.033 154.95 683.85C154.602 683.835 154.268 683.804 153.919 683.789C153.722 683.774 153.525 683.743 153.328 683.728C152.934 683.682 152.51 683.637 152.085 683.591C151.221 683.515 150.311 683.424 149.281 683.332C147.234 683.165 144.808 682.982 141.701 682.815C127.132 682.039 127.101 682.571 112.533 681.795C97.9639 681.019 97.9184 681.765 83.3497 680.989C68.7809 680.212 68.7203 681.262 54.1515 680.486C47.7995 680.151 44.2369 679.573 41.023 678.964C39.416 678.66 37.9 678.355 36.1718 678.066C35.3076 677.914 34.3829 677.777 33.3672 677.64L32.594 677.549C32.2908 677.518 32.1695 677.488 31.5631 677.442C30.5626 677.366 29.5014 677.275 28.3795 677.184C25.8023 676.94 23.21 676.27 20.6782 674.413C18.4833 672.787 16.8378 670.524 15.9635 667.93C15.7816 667.367 15.6148 666.819 15.539 666.256C15.4784 665.677 15.4177 665.114 15.3571 664.566C15.3116 664.018 15.2206 663.501 15.1903 662.968V658.798C15.1903 658.28 15.1752 657.778 15.16 657.291C15.1448 656.317 15.1145 655.404 15.0994 654.49C15.0084 650.822 14.9174 647.17 15.0539 639.849C15.3116 625.207 14.9781 625.207 15.2206 610.566C15.448 595.924 16.0848 595.939 16.297 581.297C16.4941 566.656 15.2964 566.641 15.4632 552.014C15.63 537.388 16.0544 537.388 16.1757 522.761C16.2818 508.135 15.9332 508.135 15.9938 493.509C16.0241 478.882 16.5396 478.882 16.4638 464.286C16.3425 449.705 15.7209 449.69 15.3571 435.216C15.1448 428.017 15.0387 424.455 14.8871 421.077C14.8416 420.255 14.7962 419.418 14.7204 418.657C14.69 418.215 14.6446 417.956 14.6142 417.591L14.5839 417.332V417.302L15.0994 417.15C15.539 417.013 15.8119 416.967 16.0848 416.921L16.9337 416.739C18.0707 416.48 19.1926 416.1 20.2992 415.597C20.5418 415.506 20.9056 415.278 21.0572 415.278C21.224 415.247 21.3908 415.202 21.5575 415.141C21.8759 415.019 22.1791 414.821 22.4216 414.578C22.4823 414.517 22.5429 414.441 22.6036 414.38L22.649 414.319C27.9247 408.642 15.4935 422.035 16.7518 420.62L16.6912 420.559L16.4486 420.3C16.1151 419.965 15.8119 419.585 15.539 419.204L15.3419 418.915L15.2358 418.748L15.0387 418.428C14.9023 418.215 14.781 417.987 14.6749 417.759C14.2644 416.905 13.9394 416.013 13.7046 415.095C13.4014 413.877 13.2802 413.025 13.1589 412.112C12.9163 410.346 12.7647 408.611 12.6131 406.648C12.219 398.947 12.0522 395.111 12.1735 391.261C12.219 389.343 12.1735 387.41 12.2948 385.005L12.8708 375.888C13.3105 372.068 13.5985 369.192 13.7956 366.787C14.0836 364.397 14.311 362.48 14.5384 360.562C14.9326 356.711 15.5542 352.891 17.4037 345.387C18.4649 341.674 19.1926 338.858 20.0112 336.59L22.1791 330.7C22.8158 328.874 23.6041 327.123 24.5289 324.886C25.4688 322.664 26.4845 319.955 28.1218 316.469C28.9253 314.719 29.6226 313.182 30.2442 311.812C30.8809 310.442 31.5328 309.286 32.0634 308.22C33.1852 306.089 34.0797 304.385 34.9741 302.68C35.9444 301.021 36.9298 299.362 38.1426 297.292C39.3099 295.192 40.9017 292.787 43.0089 289.561C45.0555 286.303 46.8141 284.005 48.1482 282.011C48.8152 281.007 49.4216 280.109 49.9977 279.272C50.5738 278.435 51.165 277.674 51.7259 276.882C52.8629 275.33 53.9999 273.762 55.4704 271.844C56.9864 269.972 58.8966 267.796 61.4435 264.904C64.0813 262.104 66.1886 260.11 67.932 258.451C69.6905 256.807 71.2368 255.635 72.7074 254.402C75.6636 251.937 78.7259 249.608 84.7141 244.829C87.7916 242.546 90.0352 240.735 92.0364 239.411C94.0223 238.071 95.6141 236.991 97.2059 235.925C98.7674 234.814 100.45 233.886 102.482 232.622C104.528 231.374 106.969 229.852 110.365 228.087C112.063 227.189 113.533 226.413 114.867 225.713C116.217 225.073 117.429 224.556 118.521 224.069C120.719 223.125 122.478 222.379 124.282 221.71C127.92 220.507 131.452 219.031 138.669 216.581C142.246 215.241 145.005 214.48 147.249 213.658C149.508 212.867 151.297 212.182 153.131 211.634C154.95 211.041 156.785 210.462 159.089 209.792C161.393 209.138 164.228 208.621 167.988 207.89C171.763 207.19 174.628 206.946 176.993 206.581C179.358 206.216 181.283 206.094 183.193 205.927C185.104 205.774 187.014 205.607 189.409 205.409C191.804 205.348 194.67 205.257 198.505 205.15C213.21 205.089 213.134 204.511 227.749 204.496C242.348 204.496 242.348 205.805 256.947 205.805C271.546 205.805 271.546 204.602 286.13 204.602C300.714 204.602 300.714 205.074 315.298 205.074C329.882 205.074 329.882 205.896 344.481 205.896C359.08 205.896 359.08 206.566 373.679 206.566C383.401 206.505 393.129 206.449 402.862 206.398C417.461 206.398 417.461 205.607 432.06 205.607C446.659 205.607 446.644 206.748 461.243 206.748C475.842 206.748 475.842 206.307 490.426 206.307C505.025 206.307 505.04 205.485 519.639 205.485C534.238 205.485 534.238 204.785 548.837 204.785C556.145 204.785 559.783 204.892 563.437 205.013C564.346 205.044 565.256 205.059 566.226 205.089C566.711 205.089 567.211 205.12 567.742 205.135C568.121 205.15 568.5 205.166 568.879 205.196L569.789 205.287C572.169 205.546 575.049 205.729 578.854 206.14C582.659 206.657 585.509 206.992 587.859 207.479C590.209 207.981 592.074 208.392 593.954 208.803C595.833 209.184 597.668 209.777 599.987 210.34C601.155 210.63 602.428 210.949 603.868 211.314C605.308 211.725 606.915 212.182 608.75 212.715C612.449 213.689 615.132 214.754 617.376 215.576C618.498 216.002 619.498 216.383 620.438 216.778C621.363 217.205 622.227 217.6 623.106 218.011C624.835 218.818 626.578 219.609 628.746 220.614C630.883 221.695 633.491 222.836 636.932 224.48C643.785 227.813 647.302 229.305 650.91 230.72C652.699 231.466 654.442 232.272 656.595 233.368C658.763 234.434 661.203 235.986 664.372 238.178C670.633 242.668 673.513 245.255 676.318 247.888C677.728 249.197 679.168 250.476 680.866 252.18C682.564 253.885 684.747 255.772 687.4 258.542C688.749 259.897 689.916 261.114 690.947 262.21C691.948 263.321 692.782 264.356 693.54 265.285C695.041 267.172 696.253 268.648 697.315 270.262C698.406 271.844 699.482 273.427 700.907 275.36C702.287 277.308 703.909 279.667 706.198 282.711C708.351 285.862 710.079 288.145 711.535 290.048C712.944 291.98 714.142 293.487 715.355 294.994C716.598 296.486 717.674 298.084 719.008 300.093C719.676 301.097 720.373 302.224 721.146 303.517C721.859 304.841 722.632 306.333 723.496 308.068C725.27 311.493 726.3 314.202 727.24 316.424C728.195 318.646 728.817 320.472 729.423 322.299C730.03 324.125 730.712 325.936 731.44 328.219C732.122 330.533 733.077 333.257 734.153 336.94C736.306 344.322 737.064 348.112 737.943 351.856C738.353 353.743 738.656 355.631 739.095 358.005C739.581 360.364 739.944 363.225 740.43 367.046C740.687 368.948 740.869 370.622 740.93 372.129C741.006 373.636 741.066 374.945 741.142 376.147C741.279 378.552 741.188 380.47 741.112 382.403C741.051 384.305 741.006 386.223 740.93 388.597C740.854 390.895 740.809 393.635 740.839 397.303C740.96 411.96 741.309 411.945 741.43 426.601L741.764 455.915C741.885 470.572 743.173 470.557 743.295 485.214L743.568 514.527C743.659 524.299 743.674 534.075 743.613 543.856C743.734 558.513 741.779 558.528 741.9 573.17C742.021 587.842 742.961 587.827 743.083 602.499C743.204 617.171 742.218 617.186 742.355 631.858C742.476 646.53 744.629 646.515 744.75 661.187C744.841 672.404 740.126 670.761 735.396 670.791C730.667 670.837 725.815 672.572 725.724 661.339L725.74 661.248Z" fill="black"/>
<path d="M178.297 432.72C179.176 412.127 180.328 412.173 181.207 391.565C181.45 386.405 181.647 382.539 181.799 379.313C182.011 375.797 182.178 372.996 182.36 370.196C182.435 369.024 182.496 367.852 182.572 366.65C182.86 365.6 183.148 364.549 183.436 363.454C183.588 362.921 183.694 362.312 183.951 361.886L184.285 361.186C184.543 361.064 184.725 360.79 184.952 360.592C185.392 360.196 185.786 359.77 186.286 359.42L187.014 358.872C187.302 358.735 187.605 358.598 187.908 358.461C190.288 357.366 193.639 356.833 197.035 356.483C199.218 356.27 201.583 356.118 204.251 355.996C214.893 355.615 220.093 355.539 225.414 355.387C228.067 355.341 230.72 355.311 234.101 355.463C234.95 355.509 235.844 355.554 236.799 355.63C237.284 355.676 237.785 355.707 238.285 355.752C238.649 355.798 239.028 355.828 239.407 355.874C239.877 355.92 240.347 355.996 240.817 356.072C241.757 356.239 242.787 356.315 243.742 356.605C244.228 356.726 244.728 356.848 245.228 356.97C245.728 357.107 246.183 357.305 246.668 357.487C246.896 357.594 247.153 357.67 247.381 357.792L248.002 358.218C248.427 358.492 248.836 358.796 249.246 359.116C249.625 359.435 250.14 359.725 250.489 360.151C250.837 360.592 251.08 361.064 251.383 361.536C251.671 362.023 251.944 362.495 252.217 362.951C252.414 363.469 252.566 364.032 252.732 364.549C253.066 365.6 253.187 366.756 253.415 367.806C253.551 368.902 253.672 369.968 253.794 371.003C253.854 371.627 253.9 372.236 253.96 372.829C254.112 374.929 254.248 376.771 254.385 378.445C254.582 381.733 254.749 384.351 254.915 386.984C255.219 392.204 255.476 397.394 255.658 407.759C255.992 428.443 254.097 428.458 254.445 449.051L254.931 469.917C254.976 472.566 254.991 475.199 254.87 478.562C254.733 481.941 254.627 485.914 253.642 491.743C253.536 492.458 253.354 493.219 253.202 493.935C253.127 494.3 253.051 494.635 252.945 495.015C252.808 495.517 252.672 496.02 252.535 496.507C252.217 497.511 251.808 498.44 251.459 499.368C251.004 500.22 250.64 501.118 250.125 501.849C249.139 503.371 248.169 504.756 246.684 505.41C245.456 506.369 243.94 506.689 242.53 506.993C241.089 507.267 239.68 507.374 238.315 507.48C237.557 507.541 237.254 507.526 236.845 507.556C236.451 507.556 236.072 507.587 235.693 507.602C234.207 507.648 232.842 507.648 231.493 507.633C226.096 507.556 220.836 507.42 210.345 506.445C205.084 505.928 201.143 505.395 197.793 504.802C196.125 504.513 194.579 504.193 193.078 503.843C192.532 503.706 192.001 503.584 191.471 503.447C190.88 503.295 190.303 503.097 189.727 502.914C189.151 502.747 188.59 502.564 188.075 502.306C187.544 502.077 187.029 501.819 186.559 501.499C186.089 501.195 185.589 500.905 185.164 500.525C184.77 500.114 184.346 499.703 183.967 499.277L182.905 497.892C182.617 497.374 182.329 496.842 182.041 496.309C181.541 495.198 181.056 494.011 180.798 492.702C180.647 492.063 180.465 491.393 180.343 490.723C180.268 490.221 180.207 489.703 180.131 489.186C179.646 485.335 179.54 481.332 179.419 476.036C179.252 465.519 179.131 460.42 178.933 455.23C178.767 450.071 178.509 444.926 178.661 434.424C178.736 430.528 179.055 427.438 179.631 424.912C180.192 422.37 181.086 420.422 181.92 419.494C183.588 417.545 185.543 417.15 187.757 417.332C189.94 417.515 191.759 418.154 192.668 420.955C193.108 422.401 193.366 423.801 193.563 425.932C193.745 428.078 193.805 430.969 193.745 434.714C193.593 444.865 194.033 450.04 194.397 455.2C194.791 460.329 195.094 465.565 195.261 475.64C195.367 480.632 195.428 484.346 195.64 486.827C195.655 487.086 195.7 487.497 195.7 487.603C195.7 487.71 195.67 487.679 195.655 487.725C195.625 487.786 195.594 487.847 195.564 487.938C195.519 488.09 195.503 488.288 195.564 488.44C195.594 488.516 195.655 488.592 195.716 488.653L195.822 488.76C195.822 488.76 195.852 488.79 195.852 488.805L195.882 488.836L196.079 488.897C197.232 489.232 198.505 489.566 200.006 489.871C202.977 490.495 206.676 491.073 211.679 491.56C221.67 492.489 226.718 492.747 231.63 492.945C232.858 492.991 234.07 493.006 235.329 493.006C235.905 493.006 236.496 492.991 237.102 492.976C237.284 492.976 237.466 492.976 237.648 492.961C237.845 492.961 238.042 492.93 238.255 492.869C238.467 492.808 238.573 492.565 238.694 492.367C238.815 492.154 238.906 491.91 238.997 491.652L239.043 491.469C239.104 491.271 239.164 491.043 239.21 490.799C239.301 490.312 239.437 489.856 239.528 489.277C240.301 484.863 240.377 481.043 240.362 477.984C240.362 474.894 240.165 472.368 239.968 469.857C239.771 467.345 239.543 464.819 239.346 461.653C239.134 458.487 238.952 454.713 238.846 449.492C238.482 428.793 239.937 428.778 239.619 408.185C239.407 397.927 239.316 392.813 239.21 387.684C239.149 385.127 239.058 382.585 238.906 379.45C238.831 377.882 238.74 376.162 238.588 374.245C238.543 373.681 238.482 373.103 238.436 372.464C238.406 372.236 238.376 371.977 238.315 371.718C238.3 371.414 237.982 371.338 237.769 371.292C237.542 371.246 237.315 371.216 237.118 371.185C236.526 371.124 235.965 371.064 235.435 371.003C234.601 370.927 233.798 370.866 233.04 370.805C229.992 370.577 227.491 370.485 224.99 370.409C220.017 370.303 214.923 370.135 205.024 370.5C202.568 370.607 200.43 370.774 198.626 370.987C198.323 371.018 198.369 371.018 198.308 371.033L198.187 371.064L197.959 371.124C197.823 371.17 197.686 371.216 197.58 371.277C197.474 371.338 197.383 371.398 197.323 371.49C197.232 371.581 197.338 371.748 197.353 371.855C197.414 372.099 197.489 372.281 197.565 372.449L197.626 372.555V373.514C197.656 374.168 197.656 374.838 197.671 375.523V379.952C197.656 383.179 197.565 387.045 197.353 392.204C196.489 412.842 196.868 412.858 195.988 433.511C195.67 441.136 194.366 444.698 192.608 446.311C190.804 448.427 188.59 447.757 186.423 447.438L185.604 447.316L186.089 447.392L184.997 447.224H184.891L186.104 447.392H186.059L184.967 447.209L184.209 447.087L184.012 447.057C183.754 446.996 183.497 446.935 183.239 446.89C182.739 446.768 182.238 446.616 181.784 446.433C181.556 446.342 181.329 446.25 181.117 446.144C181.01 446.083 180.904 446.052 180.798 445.976C180.692 445.885 180.601 445.779 180.495 445.672C178.949 443.952 178.024 440.36 178.342 432.735L178.297 432.72ZM502.357 432.735C502.327 411.61 503.479 411.594 503.433 390.454C503.448 385.157 503.464 381.185 503.479 377.882C503.509 376.223 503.524 374.732 503.539 373.331L503.585 370.272C503.585 369.663 503.6 369.055 503.615 368.446C503.615 367.852 503.615 367.198 503.782 366.711C504.04 365.66 504.297 364.61 504.57 363.545C504.692 362.982 504.873 362.54 505.04 362.053L505.162 361.688C505.328 361.642 505.389 361.505 505.495 361.414L506.101 360.821C506.496 360.425 506.92 360.059 507.375 359.709C507.784 359.314 508.36 359.055 508.921 358.781C509.209 358.644 509.482 358.492 509.785 358.37C510.104 358.264 510.422 358.157 510.756 358.05C511.407 357.837 512.059 357.594 512.802 357.442C513.53 357.274 514.258 357.107 515.016 356.924L516.198 356.696C516.562 356.635 516.926 356.574 517.305 356.498C518.275 356.346 519.306 356.178 520.382 356.041C522.535 355.737 524.9 355.463 527.583 355.174C537.816 354.124 543.062 353.576 548.216 352.967C550.778 352.678 553.31 352.389 556.402 352.145C557.949 352.023 559.631 351.902 561.542 351.81C562.512 351.78 563.528 351.734 564.619 351.689C564.937 351.689 565.256 351.688 565.574 351.673H567.151C568.227 351.643 569.303 351.765 570.425 351.841C570.804 351.932 571.426 352.039 572.138 352.267C572.79 352.663 573.7 352.815 574.503 353.271C576.702 354.443 578.187 356.27 579.43 358.066C580.006 359.009 580.552 359.938 580.901 360.942C581.28 361.916 581.75 362.875 581.992 363.804C582.477 365.432 582.675 366.391 582.917 367.563C583.145 368.659 583.281 369.633 583.463 370.592C584.009 374.321 584.221 377.121 584.433 379.922C584.797 385.507 584.979 390.987 584.706 401.701C584.418 412.386 583.736 417.606 583.129 422.857C582.538 428.093 581.856 433.344 581.901 443.709C581.962 446.326 582.008 448.609 582.038 450.649C582.098 452.719 582.144 454.56 582.205 456.219C582.311 459.553 582.402 462.216 582.493 464.88C582.568 467.558 582.644 470.237 582.644 473.616C582.644 475.321 582.629 477.177 582.553 479.339C582.477 481.5 582.371 483.92 582.053 486.888C582.008 487.253 581.977 487.633 581.932 487.984C581.871 488.41 581.81 488.836 581.735 489.262C581.583 490.449 581.295 491.484 581.037 492.55C580.825 493.615 580.385 494.528 580.067 495.472C579.627 496.339 579.218 497.192 578.688 497.922C578.46 498.318 578.157 498.638 577.869 498.957L577.551 499.322C577.551 499.322 577.641 499.444 577.429 499.216H577.414L577.384 499.262L577.323 499.307L576.838 499.718C576.52 499.977 576.216 500.251 575.898 500.494C575.549 500.692 575.201 500.89 574.852 501.073C574.155 501.438 573.351 501.621 572.624 501.895C571.85 502.062 571.092 502.245 570.35 502.412C566.999 502.975 565.953 503.082 564.376 503.249C562.891 503.417 561.526 503.538 560.162 503.645C554.704 504.071 549.338 504.436 538.559 504.528C533.162 504.558 529.099 504.421 525.643 504.193C523.93 504.086 522.353 503.934 520.837 503.782L519.7 503.645L519.139 503.569C518.896 503.538 518.593 503.508 518.275 503.447C517.062 503.249 515.849 503.082 514.712 502.762L513.848 502.549C513.575 502.458 513.302 502.336 513.045 502.229C512.499 502.016 511.968 501.803 511.483 501.484C510.998 501.179 510.468 500.905 509.998 500.555C509.588 500.114 509.133 499.718 508.739 499.246C507.117 497.42 505.95 494.985 505.374 492.047C505.177 491.332 505.025 490.571 504.934 489.825C504.858 489.247 504.767 488.714 504.722 488.197C504.616 487.162 504.494 486.035 504.449 484.94C504.282 482.672 504.222 480.282 504.146 477.558C503.949 466.752 503.827 461.516 503.615 456.204C503.448 450.908 503.176 445.642 503.342 434.881C503.418 430.893 503.736 427.728 504.313 425.14C504.873 422.553 505.768 420.544 506.602 419.554C508.284 417.545 510.24 417.15 512.453 417.332C514.637 417.515 516.456 418.154 517.35 421.046C517.79 422.507 518.048 423.923 518.229 426.13C518.411 428.336 518.472 431.304 518.411 435.14C518.26 445.55 518.715 450.877 519.063 456.159C519.457 461.409 519.761 466.782 519.958 477.086C520.033 479.628 520.079 481.835 520.185 483.661C520.215 484.605 520.291 485.396 520.337 486.172C520.352 486.583 520.397 486.873 520.428 487.192C520.428 487.268 520.397 487.283 520.382 487.314C520.246 487.497 520.155 487.953 520.412 488.166C520.473 488.227 520.534 488.288 520.61 488.349C520.64 488.364 520.61 488.379 520.701 488.395C520.761 488.41 520.973 488.44 521.095 488.471C521.398 488.531 521.701 488.577 522.004 488.638C523.278 488.836 524.642 489.034 526.219 489.171C529.357 489.475 533.192 489.673 538.362 489.643C548.686 489.551 553.855 489.323 558.949 489.049C560.223 488.973 561.481 488.897 562.8 488.775C563.452 488.714 564.119 488.653 564.816 488.577C565.21 488.531 565.635 488.486 566.074 488.44C566.271 488.41 566.484 488.379 566.696 488.334C566.908 488.288 567.166 488.212 567.257 487.968C567.378 487.755 567.454 487.497 567.53 487.223C567.56 487.086 567.59 486.933 567.606 486.796L567.697 486.249L567.787 485.396C568.045 483.083 568.136 480.861 568.166 478.882C568.197 476.903 568.166 475.123 568.106 473.509C567.985 470.267 567.757 467.665 567.515 465.062C567.272 462.444 567.029 459.842 566.802 456.57C566.711 454.926 566.62 453.13 566.499 451.075C566.453 450.055 566.423 448.96 566.378 447.803C566.347 446.6 566.332 445.322 566.302 443.967C566.256 433.116 566.832 427.819 567.318 422.492C567.818 417.195 568.379 411.884 568.667 401.397C568.924 390.941 568.909 385.797 568.727 380.759C568.621 378.263 568.5 375.751 568.121 372.844C567.924 371.459 567.666 369.77 567.272 368.476C567.136 368.02 567.014 367.533 566.529 367.228C566.317 367.076 566.044 367.106 566.029 367.106H564.862C563.861 367.137 562.921 367.152 562.012 367.182C560.192 367.259 558.57 367.319 557.085 367.38C554.098 367.533 551.612 367.685 549.095 367.852C544.077 368.217 538.862 368.537 529.236 369.526C526.689 369.8 524.475 370.089 522.55 370.409C521.58 370.561 520.701 370.729 519.867 370.881L519.594 370.942H519.548L519.457 370.987L519.26 371.064C519.018 371.185 518.851 371.292 518.745 371.444C518.669 371.505 518.715 371.642 518.745 371.748L518.866 372.053L518.987 372.296L519.048 372.403V372.433L519.078 372.677L519.109 373.194C519.169 374.595 519.245 376.086 519.306 377.73C519.427 381.033 519.518 385.005 519.518 390.286C519.564 411.457 519.958 411.457 519.988 432.659C519.988 440.482 518.866 444.196 517.168 445.946C516.956 446.144 516.744 446.326 516.501 446.631C516.274 446.89 516.031 447.072 515.774 447.224C515.273 447.529 514.773 447.651 514.242 447.696C513.196 447.757 512.105 447.498 511.013 447.346L510.604 447.285L510.407 447.255H510.301H510.392L510.786 447.316L509.588 447.133H509.482L510.786 447.316H510.756C510.028 447.194 509.3 447.087 508.588 446.966C508.33 446.905 508.072 446.859 507.815 446.798C507.299 446.677 506.814 446.54 506.329 446.418C506.101 446.357 505.874 446.296 505.647 446.22C505.434 446.205 505.222 446.022 505.01 445.794C503.388 444.12 502.327 440.482 502.311 432.659L502.357 432.735ZM509.74 197.677C508.284 185.73 507.86 179.718 507.42 173.706C507.208 170.707 506.981 167.694 506.647 163.95C506.465 162.078 506.253 160.023 506.026 157.679C505.889 156.507 505.753 155.274 505.616 153.95C505.54 153.296 505.465 152.611 505.374 151.911C505.283 151.211 505.162 150.617 505.055 149.932C504.828 148.593 504.631 147.345 504.434 146.173C504.297 144.986 503.888 143.92 503.661 142.901C503.13 140.861 502.721 139.035 502.084 137.467C501.493 135.884 501.068 134.423 500.507 133.084C499.916 131.775 499.355 130.542 498.794 129.309C498.294 128.046 497.582 126.889 496.869 125.641C496.52 125.017 496.141 124.363 495.762 123.693C495.565 123.358 495.368 123.008 495.171 122.658C494.944 122.323 494.701 121.988 494.459 121.638C493.443 120.268 492.473 118.67 491.123 117.042C490.426 116.235 489.698 115.383 488.925 114.47C488.531 114.013 488.137 113.541 487.712 113.069C487.258 112.628 486.788 112.171 486.287 111.7C485.317 110.756 484.392 109.873 483.528 109.036C482.588 108.29 481.709 107.59 480.875 106.936C480.041 106.296 479.283 105.642 478.495 105.109C477.692 104.607 476.949 104.135 476.221 103.679C473.416 101.761 470.87 100.787 468.474 99.5692C467.231 99.0517 465.958 98.6256 464.624 98.1081C463.957 97.8494 463.274 97.5906 462.562 97.3167C461.834 97.1036 461.061 96.8753 460.258 96.647C458.651 96.1904 456.938 95.5359 454.876 95.1859L451.647 94.4553C450.51 94.1661 449.251 94.1052 447.933 93.8922C446.614 93.74 445.386 93.4508 444.203 93.4356C443.021 93.3899 441.929 93.3442 440.883 93.2986C438.897 93.1768 436.76 93.2225 434.88 93.2377C431.135 93.2986 428.134 93.3595 425.132 93.4051C419.129 93.5269 413.14 93.6639 401.134 93.6639C377.135 93.6639 377.135 91.8222 353.137 91.8222C341.145 91.8222 335.142 91.9744 329.154 92.1114L319.406 92.3093C318.496 92.3397 317.42 92.3093 316.51 92.3854C314.404 92.5219 312.297 92.6436 310.189 92.7507C309.021 92.9333 307.763 93.1312 306.444 93.3442C303.761 93.6334 301.502 94.3335 299.455 94.851C298.44 95.1402 297.454 95.2924 296.59 95.6577C295.711 95.9925 294.892 96.2969 294.104 96.5861C290.905 97.6363 288.555 99.0061 286.13 100.163L285.22 100.604L284.356 101.152C283.78 101.517 283.189 101.883 282.582 102.263C281.976 102.644 281.354 103.024 280.703 103.435C280.369 103.633 280.036 103.846 279.702 104.044C279.384 104.287 279.065 104.531 278.717 104.79C277.398 105.825 275.882 106.89 274.244 108.229C273.471 108.945 272.653 109.691 271.773 110.497C270.924 111.319 269.909 112.08 269.045 113.13C265.33 117.042 262.935 120.314 260.995 123.069C260.085 124.484 259.266 125.778 258.493 126.98C257.705 128.183 257.174 129.446 256.522 130.618C256.204 131.212 255.886 131.82 255.567 132.429C255.401 132.734 255.249 133.038 255.082 133.358C254.946 133.677 254.824 134.012 254.688 134.347C254.157 135.686 253.596 137.117 252.975 138.7C251.929 141.926 250.762 145.868 250.079 151.287C249.716 153.037 249.806 154.696 249.7 156.127C249.64 157.557 249.594 158.775 249.549 159.734V160.267C248.563 175.639 248.867 178.972 247.381 199.093C246.077 216.855 242.484 218.985 238.073 218.666C233.661 218.331 231.023 215.743 232.342 197.982C233.828 177.861 233.009 174.528 233.798 159.095L233.767 159.734C233.798 158.562 233.843 157.07 233.904 155.32C233.949 154.453 233.979 153.509 234.025 152.52C234.055 152.033 234.055 151.515 234.116 150.998L234.343 149.415C235.177 142.733 236.663 137.878 238.012 133.921C238.8 131.973 239.528 130.238 240.241 128.609C240.422 128.198 240.589 127.802 240.771 127.407C240.983 127.026 241.18 126.646 241.393 126.28C241.802 125.535 242.211 124.804 242.621 124.073C243.47 122.628 244.197 121.136 245.168 119.675C246.153 118.214 247.184 116.661 248.336 114.957C248.624 114.53 248.897 114.074 249.215 113.633C249.549 113.206 249.897 112.765 250.246 112.324C250.943 111.426 251.701 110.467 252.49 109.447C253.975 107.347 256.052 105.322 258.235 102.872C259.297 101.609 260.494 100.635 261.555 99.6453C262.632 98.6712 263.632 97.758 264.587 96.8905C266.558 95.2467 268.423 93.9683 270.06 92.7354C271.667 91.457 273.335 90.6351 274.805 89.7067C275.548 89.2653 276.276 88.8239 277.004 88.413C277.716 87.9716 278.429 87.5759 279.171 87.241C282.158 85.8864 285.038 84.3036 288.95 83.0403C290.875 82.3554 292.967 81.5183 295.468 80.9704C297.955 80.3616 300.699 79.5245 303.958 79.1288C305.58 78.87 307.081 78.6417 308.521 78.4134C309.961 78.2764 311.311 78.2156 312.584 78.109C315.131 77.9264 317.435 77.7285 319.239 77.6829C322.984 77.5154 325.985 77.2719 328.987 77.0436C334.991 76.5718 340.979 76.1152 352.985 76.1152C376.984 76.1152 376.984 77.5154 400.982 77.5154C412.974 77.5459 418.977 77.5611 424.965 77.5915C427.967 77.5915 430.968 77.622 434.713 77.6372C436.608 77.6524 438.564 77.6068 441.201 77.759C442.475 77.8198 443.839 77.8807 445.28 77.9568C446.735 77.972 448.236 78.3069 449.873 78.5047C451.495 78.7635 453.026 78.9005 454.451 79.2201C455.861 79.5549 457.195 79.8593 458.438 80.1485C460.955 80.6508 463.093 81.4422 465.033 82.0814C466.003 82.4011 466.928 82.7207 467.822 83.0099C468.702 83.3295 469.52 83.7252 470.324 84.06C471.931 84.7602 473.432 85.4146 474.948 86.0691C476.388 86.8453 477.843 87.6367 479.374 88.4738C480.936 89.2653 482.482 90.3002 484.18 91.4417C485.029 92.0201 485.939 92.6137 486.879 93.2529C487.818 93.8922 488.728 94.714 489.744 95.5055C490.744 96.3121 491.806 97.1797 492.927 98.0929C493.973 99.0974 495.08 100.178 496.278 101.32C496.869 101.898 497.445 102.446 497.991 102.994C498.537 103.542 499.007 104.135 499.492 104.668C500.447 105.764 501.356 106.784 502.205 107.758C503.1 108.701 503.767 109.706 504.479 110.619C505.177 111.532 505.829 112.4 506.45 113.237C507.769 114.85 508.648 116.494 509.649 117.955C510.604 119.447 511.574 120.801 512.302 122.308C513.09 123.784 513.863 125.261 514.697 126.828C515.485 128.411 516.137 130.192 516.926 132.125C517.29 133.114 517.775 134.103 518.078 135.23C518.396 136.356 518.73 137.543 519.094 138.791C519.412 140.054 519.897 141.379 520.109 142.84C520.367 144.301 520.625 145.853 520.913 147.497L524.127 171.621C524.945 177.602 525.764 183.568 527.219 195.547C529.372 213.232 524.763 212.699 520.382 213.232C516.001 213.765 511.832 215.378 509.679 197.693L509.74 197.677Z" fill="black"/>
<path d="M453.769 205.363C453.178 190.524 454.36 190.478 453.769 175.639C453.724 174.376 453.769 174.726 453.602 173.843C453.496 173.173 453.39 172.534 453.299 171.94C453.148 170.738 452.769 169.733 452.571 168.775C452.39 167.816 452.071 167.009 451.813 166.218C451.525 165.441 451.359 164.68 451.025 163.965C450.388 162.55 449.843 161.073 448.812 159.414C448.569 158.988 448.327 158.532 448.039 158.075C447.72 157.634 447.402 157.162 447.038 156.659C446.674 156.172 446.341 155.609 445.886 155.092C445.431 154.574 444.961 154.011 444.446 153.418C443.961 152.809 443.415 152.307 442.915 151.835L441.49 150.495C440.534 149.734 439.655 149.11 438.882 148.532C438.079 147.984 437.29 147.588 436.578 147.177C436.214 146.98 435.88 146.782 435.516 146.599C435.153 146.447 434.804 146.295 434.44 146.142C433.728 145.853 433.03 145.518 432.272 145.214C431.499 144.955 430.68 144.681 429.801 144.346C427.997 143.753 425.829 143.114 422.873 142.474C421.387 142.246 420.068 142.048 418.901 141.957C417.719 141.927 416.688 141.896 415.733 141.866C413.428 141.927 411.579 141.987 409.729 142.033C406.03 142.155 402.331 142.292 394.933 142.292C380.137 142.292 380.137 140.45 365.341 140.45C357.943 140.45 354.244 140.602 350.545 140.739L344.541 140.937C343.419 140.968 342.04 140.968 340.736 141.029C339.538 141.15 338.174 141.135 336.643 141.318C330.518 142.14 327.653 143.479 324.894 144.803C324.212 145.153 323.514 145.473 322.802 145.868L320.558 147.284C319.709 147.741 318.921 148.456 317.951 149.171C316.95 149.841 315.995 150.8 314.858 151.835C314.267 152.322 313.782 152.87 313.327 153.372C312.857 153.874 312.432 154.331 312.023 154.772C311.22 155.67 310.628 156.553 309.992 157.283C309.34 158.014 308.915 158.775 308.445 159.445C308.006 160.13 307.49 160.738 307.126 161.423C306.414 162.793 305.519 164.102 304.868 165.959C304.519 166.872 304.049 167.846 303.776 169.049C303.473 170.236 303.018 171.545 302.866 173.112C302.745 173.889 302.639 174.619 302.533 175.304C302.472 176.004 302.472 176.689 302.442 177.313C302.397 178.576 302.366 179.642 302.366 180.874C302.366 183.203 302.397 185.075 302.427 186.932C302.487 190.661 302.563 194.405 302.321 201.863C301.957 212.882 298.485 214.252 294.074 214.1C289.662 213.948 286.888 212.38 287.252 201.452C287.494 194.055 287.252 190.357 286.994 186.643C286.873 184.786 286.736 182.944 286.676 180.631C286.63 179.566 286.645 178.028 286.691 176.354C286.721 175.517 286.736 174.634 286.797 173.675C286.933 172.717 287.085 171.682 287.237 170.586C287.494 168.394 288.085 166.537 288.54 164.863C288.965 163.189 289.601 161.804 290.132 160.525C291.148 157.968 292.406 156.127 293.528 154.255C294.089 153.311 294.801 152.474 295.453 151.53C296.151 150.617 296.787 149.582 297.697 148.578C298.576 147.558 299.455 146.371 300.577 145.138C301.153 144.529 301.76 143.89 302.397 143.19C303.048 142.505 303.7 141.744 304.504 141.044C306.08 139.613 307.43 138.304 308.809 137.361C310.158 136.386 311.28 135.443 312.463 134.804C313.615 134.119 314.646 133.51 315.616 132.947C316.617 132.414 317.602 132.003 318.557 131.546C322.438 129.857 326.44 128.137 334.854 126.98C336.961 126.707 338.811 126.691 340.463 126.539C341.934 126.448 343.238 126.372 344.405 126.296C346.709 126.128 348.559 125.885 350.408 125.656C354.107 125.185 357.806 124.728 365.204 124.728C380.001 124.728 380.001 126.128 394.797 126.128C402.195 126.159 405.894 126.174 409.593 126.204C411.442 126.204 413.292 126.235 415.596 126.25C416.915 126.311 418.386 126.387 420.038 126.463C421.691 126.6 423.54 126.904 425.647 127.224C427.724 127.741 429.574 128.061 431.15 128.609C432.727 129.157 434.152 129.537 435.38 130.07C436.608 130.603 437.715 131.075 438.761 131.516C439.792 131.988 440.716 132.536 441.656 133.038C442.611 133.54 443.551 134.043 444.476 134.697C445.416 135.336 446.447 135.96 447.523 136.767C448.569 137.604 449.737 138.517 451.01 139.598C452.192 140.785 453.633 142.003 455.027 143.631C456.437 145.244 457.68 146.66 458.651 148.045C459.151 148.715 459.636 149.354 460.091 149.947C460.53 150.556 460.894 151.165 461.273 151.728C462.82 153.95 463.851 155.868 464.912 157.771C465.473 158.714 465.852 159.734 466.352 160.799C466.822 161.865 467.352 162.991 467.716 164.315C468.095 165.624 468.641 167.055 468.944 168.744C469.096 169.596 469.263 170.479 469.445 171.438C469.52 171.925 469.626 172.367 469.717 173.219C469.748 173.782 469.763 174.36 469.793 174.954C470.384 189.809 470.748 189.793 471.34 204.663C471.764 215.637 467.246 215.15 462.835 215.317C458.423 215.5 454.118 216.337 453.678 205.363H453.769Z" fill="black"/>
</svg>
